<mxfile host="app.diagrams.net" modified="2020-04-01T03:12:47.080Z" agent="5.0 (Windows NT 10.0; Win64; x64) AppleWebKit/537.36 (KHTML, like Gecko) Chrome/80.0.3987.149 Safari/537.36" etag="zOyMl_WWYAZuGe38aOwI" version="12.9.6" type="github">
  <diagram id="qrGEZ7d2ItmtNZZTiHF2" name="Page-1">
    <mxGraphModel dx="1422" dy="794" grid="1" gridSize="10" guides="1" tooltips="1" connect="1" arrows="1" fold="1" page="1" pageScale="1" pageWidth="827" pageHeight="1169" math="0" shadow="0">
      <root>
        <mxCell id="0" />
        <mxCell id="1" parent="0" />
        <mxCell id="YghnJZwzXwjtp5xYnZhh-16" style="edgeStyle=orthogonalEdgeStyle;rounded=0;orthogonalLoop=1;jettySize=auto;html=1;entryX=0.5;entryY=0;entryDx=0;entryDy=0;" edge="1" parent="1" source="YghnJZwzXwjtp5xYnZhh-2" target="YghnJZwzXwjtp5xYnZhh-5">
          <mxGeometry relative="1" as="geometry" />
        </mxCell>
        <mxCell id="YghnJZwzXwjtp5xYnZhh-2" value="Start" style="ellipse;whiteSpace=wrap;html=1;" vertex="1" parent="1">
          <mxGeometry x="40" width="120" height="80" as="geometry" />
        </mxCell>
        <mxCell id="YghnJZwzXwjtp5xYnZhh-18" style="edgeStyle=orthogonalEdgeStyle;rounded=0;orthogonalLoop=1;jettySize=auto;html=1;entryX=0.5;entryY=0;entryDx=0;entryDy=0;" edge="1" parent="1" source="YghnJZwzXwjtp5xYnZhh-4" target="YghnJZwzXwjtp5xYnZhh-7">
          <mxGeometry relative="1" as="geometry" />
        </mxCell>
        <mxCell id="YghnJZwzXwjtp5xYnZhh-4" value="Push button" style="rounded=0;whiteSpace=wrap;html=1;" vertex="1" parent="1">
          <mxGeometry x="20" y="270" width="160" height="60" as="geometry" />
        </mxCell>
        <mxCell id="YghnJZwzXwjtp5xYnZhh-10" style="edgeStyle=orthogonalEdgeStyle;rounded=0;orthogonalLoop=1;jettySize=auto;html=1;entryX=1;entryY=0.5;entryDx=0;entryDy=0;" edge="1" parent="1" source="YghnJZwzXwjtp5xYnZhh-5" target="YghnJZwzXwjtp5xYnZhh-9">
          <mxGeometry relative="1" as="geometry">
            <mxPoint x="310" y="860" as="targetPoint" />
            <Array as="points">
              <mxPoint x="270" y="180" />
              <mxPoint x="270" y="870" />
            </Array>
          </mxGeometry>
        </mxCell>
        <mxCell id="YghnJZwzXwjtp5xYnZhh-17" style="edgeStyle=orthogonalEdgeStyle;rounded=0;orthogonalLoop=1;jettySize=auto;html=1;entryX=0.5;entryY=0;entryDx=0;entryDy=0;" edge="1" parent="1" source="YghnJZwzXwjtp5xYnZhh-5" target="YghnJZwzXwjtp5xYnZhh-4">
          <mxGeometry relative="1" as="geometry" />
        </mxCell>
        <mxCell id="YghnJZwzXwjtp5xYnZhh-5" value="&lt;span style=&quot;text-align: left ; white-space: normal&quot;&gt;Check Blue LED is bright&lt;/span&gt;" style="rhombus;whiteSpace=wrap;html=1;" vertex="1" parent="1">
          <mxGeometry y="120" width="200" height="120" as="geometry" />
        </mxCell>
        <mxCell id="YghnJZwzXwjtp5xYnZhh-15" style="edgeStyle=orthogonalEdgeStyle;rounded=0;orthogonalLoop=1;jettySize=auto;html=1;" edge="1" parent="1" source="YghnJZwzXwjtp5xYnZhh-6">
          <mxGeometry relative="1" as="geometry">
            <mxPoint x="270" y="580" as="targetPoint" />
          </mxGeometry>
        </mxCell>
        <mxCell id="YghnJZwzXwjtp5xYnZhh-23" style="edgeStyle=orthogonalEdgeStyle;rounded=0;orthogonalLoop=1;jettySize=auto;html=1;entryX=0.5;entryY=0;entryDx=0;entryDy=0;" edge="1" parent="1" source="YghnJZwzXwjtp5xYnZhh-6" target="YghnJZwzXwjtp5xYnZhh-22">
          <mxGeometry relative="1" as="geometry" />
        </mxCell>
        <mxCell id="YghnJZwzXwjtp5xYnZhh-6" value="&lt;span style=&quot;text-align: left ; white-space: normal&quot;&gt;Check Orange LED is bright&lt;/span&gt;" style="rhombus;whiteSpace=wrap;html=1;" vertex="1" parent="1">
          <mxGeometry y="520" width="200" height="120" as="geometry" />
        </mxCell>
        <mxCell id="YghnJZwzXwjtp5xYnZhh-14" style="edgeStyle=orthogonalEdgeStyle;rounded=0;orthogonalLoop=1;jettySize=auto;html=1;" edge="1" parent="1" source="YghnJZwzXwjtp5xYnZhh-7">
          <mxGeometry relative="1" as="geometry">
            <mxPoint x="270" y="420" as="targetPoint" />
          </mxGeometry>
        </mxCell>
        <mxCell id="YghnJZwzXwjtp5xYnZhh-19" style="edgeStyle=orthogonalEdgeStyle;rounded=0;orthogonalLoop=1;jettySize=auto;html=1;entryX=0.5;entryY=0;entryDx=0;entryDy=0;" edge="1" parent="1" source="YghnJZwzXwjtp5xYnZhh-7" target="YghnJZwzXwjtp5xYnZhh-6">
          <mxGeometry relative="1" as="geometry" />
        </mxCell>
        <mxCell id="YghnJZwzXwjtp5xYnZhh-7" value="&lt;span style=&quot;text-align: left ; white-space: normal&quot;&gt;Detect button&lt;/span&gt;" style="rhombus;whiteSpace=wrap;html=1;" vertex="1" parent="1">
          <mxGeometry y="360" width="200" height="120" as="geometry" />
        </mxCell>
        <mxCell id="YghnJZwzXwjtp5xYnZhh-9" value="Test End" style="ellipse;whiteSpace=wrap;html=1;" vertex="1" parent="1">
          <mxGeometry x="40" y="830" width="120" height="80" as="geometry" />
        </mxCell>
        <mxCell id="YghnJZwzXwjtp5xYnZhh-11" value="No bright" style="text;html=1;align=center;verticalAlign=middle;resizable=0;points=[];autosize=1;" vertex="1" parent="1">
          <mxGeometry x="205" y="160" width="60" height="20" as="geometry" />
        </mxCell>
        <mxCell id="YghnJZwzXwjtp5xYnZhh-20" value="No" style="text;html=1;align=center;verticalAlign=middle;resizable=0;points=[];autosize=1;" vertex="1" parent="1">
          <mxGeometry x="220" y="399" width="30" height="20" as="geometry" />
        </mxCell>
        <mxCell id="YghnJZwzXwjtp5xYnZhh-21" value="No bright" style="text;html=1;align=center;verticalAlign=middle;resizable=0;points=[];autosize=1;" vertex="1" parent="1">
          <mxGeometry x="205" y="555" width="60" height="20" as="geometry" />
        </mxCell>
        <mxCell id="YghnJZwzXwjtp5xYnZhh-24" style="edgeStyle=orthogonalEdgeStyle;rounded=0;orthogonalLoop=1;jettySize=auto;html=1;" edge="1" parent="1" source="YghnJZwzXwjtp5xYnZhh-22">
          <mxGeometry relative="1" as="geometry">
            <mxPoint x="270" y="730" as="targetPoint" />
          </mxGeometry>
        </mxCell>
        <mxCell id="YghnJZwzXwjtp5xYnZhh-26" style="edgeStyle=orthogonalEdgeStyle;rounded=0;orthogonalLoop=1;jettySize=auto;html=1;" edge="1" parent="1" source="YghnJZwzXwjtp5xYnZhh-22" target="YghnJZwzXwjtp5xYnZhh-9">
          <mxGeometry relative="1" as="geometry" />
        </mxCell>
        <mxCell id="YghnJZwzXwjtp5xYnZhh-22" value="&lt;span style=&quot;text-align: left ; white-space: normal&quot;&gt;Detect TMP75&amp;nbsp;&lt;/span&gt;Temperature" style="rhombus;whiteSpace=wrap;html=1;" vertex="1" parent="1">
          <mxGeometry y="670" width="200" height="120" as="geometry" />
        </mxCell>
        <mxCell id="YghnJZwzXwjtp5xYnZhh-25" value="No reading" style="text;html=1;align=center;verticalAlign=middle;resizable=0;points=[];autosize=1;" vertex="1" parent="1">
          <mxGeometry x="195" y="700" width="70" height="20" as="geometry" />
        </mxCell>
      </root>
    </mxGraphModel>
  </diagram>
</mxfile>
